<svg id="svg" version="1.1" xmlns="http://www.w3.org/2000/svg" xmlns:xlink="http://www.w3.org/1999/xlink" width="400" height="400" viewBox="0, 0, 400,400"><g id="svgg"><path id="path0" d="M222.037 34.645 C 222.307 34.970,222.268 35.188,221.917 35.330 C 221.521 35.488,221.517 35.544,221.900 35.568 C 222.525 35.608,222.621 60.639,222.000 61.600 C 221.681 62.094,221.611 62.100,221.606 61.633 C 221.603 61.322,221.484 61.182,221.343 61.324 C 221.202 61.465,221.290 61.827,221.540 62.127 C 221.789 62.428,221.860 62.821,221.697 63.001 C 221.533 63.181,221.613 63.206,221.872 63.058 C 222.132 62.909,222.460 62.973,222.600 63.200 C 222.740 63.427,223.051 63.492,223.289 63.345 C 223.530 63.196,223.610 63.260,223.468 63.489 C 223.328 63.717,223.951 64.391,224.852 64.987 C 225.754 65.584,226.365 65.831,226.211 65.536 C 226.057 65.241,226.261 65.368,226.665 65.817 C 227.069 66.266,227.940 66.896,228.600 67.217 C 229.260 67.538,230.149 68.115,230.575 68.500 C 231.002 68.885,231.587 69.200,231.875 69.200 C 232.164 69.200,232.400 69.350,232.400 69.532 C 232.400 69.715,232.895 70.120,233.500 70.432 C 234.105 70.745,234.949 71.315,235.375 71.700 C 235.802 72.085,236.387 72.400,236.675 72.400 C 236.964 72.400,237.200 72.535,237.201 72.700 C 237.201 72.865,238.056 73.532,239.101 74.183 C 240.145 74.833,241.291 75.688,241.647 76.083 C 242.003 76.477,242.588 76.800,242.947 76.800 C 243.306 76.800,243.600 76.967,243.600 77.171 C 243.600 77.627,244.010 78.041,247.202 80.814 C 249.431 82.750,251.898 85.200,257.400 90.944 C 258.280 91.862,259.499 93.346,260.108 94.241 C 260.718 95.135,261.528 96.213,261.908 96.636 C 262.289 97.059,263.401 98.574,264.379 100.003 C 265.357 101.431,266.258 102.690,266.380 102.800 C 266.501 102.910,266.856 103.495,267.168 104.100 C 267.480 104.705,267.885 105.200,268.068 105.200 C 268.250 105.200,268.400 105.470,268.400 105.800 C 268.400 106.130,268.580 106.400,268.800 106.400 C 269.020 106.400,269.200 106.636,269.200 106.925 C 269.200 107.213,269.560 107.836,270.000 108.308 C 270.440 108.780,270.800 109.444,270.800 109.783 C 270.800 110.122,270.980 110.400,271.200 110.400 C 271.420 110.400,271.600 110.760,271.600 111.200 C 271.600 111.640,271.758 112.000,271.951 112.000 C 272.145 112.000,272.527 112.540,272.800 113.200 C 273.073 113.860,273.455 114.400,273.649 114.400 C 273.842 114.400,274.000 114.665,274.000 114.988 C 274.000 115.311,274.338 116.178,274.752 116.915 C 275.166 117.651,275.630 118.825,275.783 119.522 C 275.936 120.220,276.228 120.894,276.431 121.019 C 276.634 121.145,276.800 121.597,276.800 122.024 C 276.800 122.451,276.980 122.800,277.200 122.800 C 277.420 122.800,277.600 123.072,277.600 123.405 C 277.600 123.738,277.759 124.323,277.953 124.705 C 278.148 125.087,278.485 125.850,278.704 126.400 C 278.922 126.950,279.303 127.903,279.550 128.519 C 279.798 129.134,280.000 129.989,280.000 130.419 C 280.000 130.848,280.180 131.200,280.400 131.200 C 280.620 131.200,280.800 131.740,280.800 132.400 C 280.800 133.060,280.980 133.600,281.200 133.600 C 281.420 133.600,281.600 134.129,281.600 134.776 C 281.600 135.423,281.780 136.064,282.000 136.200 C 282.220 136.336,282.400 137.067,282.400 137.824 C 282.400 138.581,282.560 139.200,282.756 139.200 C 283.106 139.200,283.420 140.537,283.859 143.900 C 283.981 144.835,284.242 145.600,284.440 145.600 C 284.638 145.600,284.800 146.489,284.800 147.576 C 284.800 148.663,284.980 149.664,285.200 149.800 C 285.420 149.936,285.600 151.297,285.600 152.824 C 285.600 154.408,285.772 155.600,286.000 155.600 C 286.259 155.600,286.400 160.267,286.400 168.800 C 286.400 177.333,286.259 182.000,286.000 182.000 C 285.772 182.000,285.600 183.192,285.600 184.776 C 285.600 186.303,285.420 187.664,285.200 187.800 C 284.980 187.936,284.800 188.937,284.800 190.024 C 284.800 191.111,284.620 192.000,284.400 192.000 C 284.180 192.000,284.000 192.720,284.000 193.600 C 284.000 194.480,283.820 195.200,283.600 195.200 C 283.380 195.200,283.200 195.819,283.200 196.576 C 283.200 197.333,283.020 198.064,282.800 198.200 C 282.580 198.336,282.400 198.979,282.400 199.629 C 282.400 200.279,282.242 201.123,282.049 201.505 C 281.513 202.567,280.800 204.976,280.800 205.728 C 280.800 206.098,280.620 206.400,280.400 206.400 C 280.180 206.400,280.000 206.850,280.000 207.400 C 280.000 207.950,279.820 208.400,279.600 208.400 C 279.380 208.400,279.200 208.929,279.200 209.576 C 279.200 210.223,279.020 210.864,278.800 211.000 C 278.580 211.136,278.400 211.597,278.400 212.024 C 278.400 212.451,278.220 212.800,278.000 212.800 C 277.780 212.800,277.600 213.072,277.600 213.405 C 277.600 213.738,277.435 214.323,277.233 214.705 C 276.571 215.958,275.200 219.185,275.198 219.496 C 275.196 219.979,272.508 225.100,271.995 225.600 C 271.882 225.710,271.358 226.655,270.832 227.700 C 270.305 228.745,269.766 229.600,269.635 229.600 C 269.503 229.600,269.136 230.185,268.820 230.900 C 268.503 231.615,267.920 232.549,267.522 232.975 C 267.125 233.402,266.800 233.987,266.800 234.275 C 266.800 234.564,266.662 234.800,266.494 234.800 C 266.326 234.800,265.744 235.520,265.200 236.400 C 264.656 237.280,264.103 238.000,263.970 238.000 C 263.837 238.000,263.529 238.438,263.285 238.973 C 263.041 239.508,262.485 240.363,262.050 240.873 C 261.614 241.383,260.182 243.092,258.867 244.671 C 257.552 246.250,256.369 247.435,256.238 247.305 C 256.107 247.174,256.000 247.279,256.000 247.538 C 256.000 247.950,251.512 252.964,250.071 254.161 C 249.781 254.402,249.196 254.915,248.771 255.300 C 248.347 255.685,247.790 256.000,247.533 256.000 C 247.277 256.000,247.174 256.107,247.305 256.238 C 247.435 256.369,246.250 257.552,244.671 258.867 C 243.092 260.182,241.410 261.590,240.934 261.997 C 240.458 262.403,239.648 262.958,239.134 263.230 C 238.620 263.503,237.930 264.014,237.600 264.366 C 237.270 264.717,236.505 265.260,235.900 265.570 C 235.295 265.881,234.800 266.285,234.800 266.468 C 234.800 266.650,234.564 266.800,234.275 266.800 C 233.987 266.800,233.364 267.160,232.892 267.600 C 232.420 268.040,231.846 268.400,231.617 268.400 C 231.388 268.400,231.200 268.580,231.200 268.800 C 231.200 269.020,231.007 269.200,230.772 269.200 C 230.537 269.200,229.559 269.740,228.600 270.400 C 227.641 271.060,226.573 271.600,226.228 271.600 C 225.883 271.600,225.600 271.780,225.600 272.000 C 225.600 272.220,225.355 272.400,225.055 272.400 C 224.755 272.400,224.020 272.889,223.422 273.487 C 222.213 274.696,221.222 276.281,221.960 275.825 C 222.276 275.629,222.400 279.154,222.400 288.376 C 222.400 296.659,222.258 301.200,222.000 301.200 C 221.780 301.200,221.600 301.571,221.600 302.024 C 221.600 302.477,221.420 302.736,221.200 302.600 C 220.980 302.464,220.800 302.603,220.800 302.910 C 220.800 303.216,221.070 303.467,221.400 303.467 C 221.730 303.467,222.000 303.317,222.000 303.133 C 222.000 302.950,222.338 302.800,222.751 302.800 C 223.164 302.800,223.711 302.549,223.966 302.241 C 224.221 301.934,224.783 301.775,225.215 301.888 C 225.649 302.001,226.000 301.894,226.000 301.647 C 226.000 301.401,226.341 301.200,226.757 301.200 C 227.174 301.200,227.622 300.919,227.754 300.575 C 227.886 300.231,228.163 300.054,228.370 300.181 C 228.576 300.309,228.858 300.230,228.996 300.007 C 229.134 299.783,229.597 299.600,230.024 299.600 C 230.451 299.600,230.800 299.420,230.800 299.200 C 230.800 298.980,231.160 298.800,231.600 298.800 C 232.040 298.800,232.400 298.620,232.400 298.400 C 232.400 298.180,232.760 298.000,233.200 298.000 C 233.640 298.000,234.000 297.820,234.000 297.600 C 234.000 297.380,234.360 297.200,234.800 297.200 C 235.240 297.200,235.600 297.020,235.600 296.800 C 235.600 296.580,235.960 296.400,236.400 296.400 C 236.840 296.400,237.200 296.220,237.200 296.000 C 237.200 295.780,237.560 295.600,238.000 295.600 C 238.440 295.600,238.800 295.420,238.800 295.200 C 238.800 294.980,239.070 294.800,239.400 294.800 C 239.730 294.800,240.000 294.620,240.000 294.400 C 240.000 294.180,240.270 294.000,240.600 294.000 C 240.930 294.000,241.200 293.820,241.200 293.600 C 241.200 293.380,241.470 293.200,241.800 293.200 C 242.130 293.200,242.400 293.020,242.400 292.800 C 242.400 292.580,242.760 292.400,243.200 292.400 C 243.640 292.400,244.000 292.253,244.000 292.074 C 244.000 291.894,245.080 291.231,246.400 290.600 C 247.720 289.969,248.800 289.306,248.800 289.126 C 248.800 288.947,249.025 288.800,249.300 288.800 C 249.575 288.799,250.340 288.334,251.000 287.765 C 251.660 287.196,252.695 286.437,253.300 286.079 C 253.905 285.721,254.400 285.286,254.400 285.114 C 254.400 284.941,254.655 284.800,254.967 284.800 C 255.278 284.800,255.593 284.658,255.667 284.485 C 255.740 284.312,256.610 283.547,257.600 282.785 C 258.589 282.023,259.711 281.061,260.092 280.648 C 260.762 279.920,260.908 280.019,264.536 283.648 C 266.599 285.711,270.296 289.335,272.752 291.700 C 275.208 294.065,277.138 296.000,277.041 296.000 C 276.865 296.000,286.007 305.174,290.055 309.059 C 291.235 310.191,294.918 313.881,298.239 317.259 C 301.561 320.637,305.251 324.323,306.439 325.452 C 307.628 326.581,311.320 330.271,314.645 333.652 C 317.970 337.033,321.840 340.905,323.245 342.256 C 324.650 343.608,328.332 347.298,331.428 350.456 C 334.523 353.615,338.213 357.306,339.628 358.658 C 341.042 360.009,344.817 363.810,348.016 367.103 C 354.192 373.462,356.614 375.200,359.297 375.200 C 360.124 375.200,360.800 375.380,360.800 375.600 C 360.800 376.121,363.478 376.121,363.800 375.600 C 363.936 375.380,364.782 375.200,365.680 375.200 C 369.922 375.200,375.200 370.060,375.200 365.930 C 375.200 365.114,375.380 364.336,375.600 364.200 C 375.820 364.064,376.000 363.344,376.000 362.600 C 376.000 361.856,375.820 361.136,375.600 361.000 C 375.380 360.864,375.200 360.087,375.200 359.273 C 375.200 356.637,373.452 354.205,367.057 347.946 C 363.726 344.686,360.460 341.473,359.800 340.806 C 359.140 340.140,355.450 336.456,351.600 332.620 C 347.750 328.783,343.520 324.527,342.200 323.160 C 340.880 321.794,337.034 317.959,333.653 314.638 C 330.272 311.317,326.582 307.625,325.453 306.433 C 324.324 305.241,320.635 301.551,317.255 298.233 C 313.875 294.915,310.005 291.048,308.655 289.640 C 307.305 288.232,303.617 284.542,300.460 281.440 C 297.302 278.338,293.072 274.107,291.060 272.038 C 289.047 269.970,285.721 266.600,283.669 264.551 L 279.938 260.826 280.869 259.882 C 281.381 259.363,282.250 258.339,282.800 257.606 C 283.350 256.873,284.025 256.045,284.300 255.765 C 284.575 255.486,284.800 255.064,284.800 254.829 C 284.800 254.593,284.941 254.400,285.114 254.400 C 285.286 254.400,285.721 253.905,286.079 253.300 C 286.437 252.695,287.196 251.660,287.765 251.000 C 288.334 250.340,288.799 249.657,288.800 249.483 C 288.800 249.309,288.983 248.949,289.206 248.683 C 290.218 247.478,291.600 245.110,291.600 244.582 C 291.600 244.262,291.780 244.000,292.000 244.000 C 292.220 244.000,292.400 243.722,292.400 243.383 C 292.400 243.044,292.760 242.380,293.200 241.908 C 293.640 241.436,294.000 240.813,294.000 240.525 C 294.000 240.236,294.180 240.000,294.400 240.000 C 294.620 240.000,294.800 239.730,294.800 239.400 C 294.800 239.070,294.980 238.800,295.200 238.800 C 295.420 238.800,295.600 238.440,295.600 238.000 C 295.600 237.560,295.780 237.200,296.000 237.200 C 296.220 237.200,296.400 236.840,296.400 236.400 C 296.400 235.960,296.535 235.599,296.700 235.597 C 297.059 235.593,298.000 233.656,298.000 232.920 C 298.000 232.634,298.135 232.399,298.300 232.397 C 298.659 232.393,299.600 230.456,299.600 229.720 C 299.600 229.434,299.780 229.200,300.000 229.200 C 300.220 229.200,300.400 228.840,300.400 228.400 C 300.400 227.960,300.580 227.600,300.800 227.600 C 301.020 227.600,301.200 227.240,301.200 226.800 C 301.200 226.360,301.380 226.000,301.600 226.000 C 301.820 226.000,302.000 225.645,302.000 225.212 C 302.000 224.779,302.360 223.783,302.800 223.000 C 303.240 222.217,303.600 221.309,303.600 220.982 C 303.600 220.656,303.759 220.077,303.953 219.695 C 304.669 218.289,305.179 216.935,306.026 214.200 C 306.502 212.660,307.051 211.087,307.246 210.705 C 307.441 210.323,307.600 209.569,307.600 209.029 C 307.600 208.489,307.766 207.945,307.969 207.819 C 308.171 207.694,308.463 206.421,308.616 204.990 C 308.769 203.559,309.053 202.291,309.247 202.171 C 309.441 202.051,309.600 201.243,309.600 200.376 C 309.600 199.509,309.780 198.800,310.000 198.800 C 310.220 198.800,310.400 197.900,310.400 196.800 C 310.400 195.700,310.580 194.800,310.800 194.800 C 311.022 194.800,311.200 193.741,311.200 192.424 C 311.200 191.117,311.380 189.936,311.600 189.800 C 311.820 189.664,312.000 188.224,312.000 186.600 C 312.000 184.976,312.180 183.536,312.400 183.400 C 312.655 183.243,312.800 177.870,312.800 168.600 C 312.800 159.330,312.655 153.957,312.400 153.800 C 312.180 153.664,312.000 152.224,312.000 150.600 C 312.000 148.976,311.820 147.536,311.600 147.400 C 311.380 147.264,311.200 146.173,311.200 144.976 C 311.200 143.779,311.020 142.800,310.800 142.800 C 310.580 142.800,310.400 141.821,310.400 140.624 C 310.400 139.427,310.220 138.336,310.000 138.200 C 309.780 138.064,309.600 137.243,309.600 136.376 C 309.600 135.509,309.445 134.800,309.256 134.800 C 309.067 134.800,308.810 133.815,308.686 132.612 C 308.482 130.638,308.050 128.901,307.190 126.600 C 307.026 126.160,306.673 124.990,306.407 124.000 C 306.140 123.010,305.760 121.887,305.561 121.505 C 305.362 121.123,305.200 120.448,305.200 120.005 C 305.200 119.562,305.020 119.200,304.800 119.200 C 304.580 119.200,304.400 118.761,304.400 118.224 C 304.400 117.687,304.220 117.136,304.000 117.000 C 303.780 116.864,303.600 116.403,303.600 115.976 C 303.600 115.549,303.420 115.200,303.200 115.200 C 302.980 115.200,302.800 114.660,302.800 114.000 C 302.800 113.340,302.664 112.800,302.498 112.800 C 302.331 112.800,301.960 112.215,301.671 111.500 C 301.383 110.785,300.979 109.887,300.774 109.505 C 300.568 109.123,300.400 108.538,300.400 108.205 C 300.400 107.872,300.220 107.600,300.000 107.600 C 299.780 107.600,299.600 107.240,299.600 106.800 C 299.600 106.360,299.420 106.000,299.200 106.000 C 298.980 106.000,298.800 105.640,298.800 105.200 C 298.800 104.760,298.620 104.400,298.400 104.400 C 298.180 104.400,298.000 104.040,298.000 103.600 C 298.000 103.160,297.820 102.800,297.600 102.800 C 297.380 102.800,297.200 102.440,297.200 102.000 C 297.200 101.560,297.020 101.200,296.800 101.200 C 296.580 101.200,296.400 100.840,296.400 100.400 C 296.400 99.960,296.241 99.600,296.047 99.600 C 295.852 99.600,295.593 99.285,295.471 98.900 C 295.254 98.213,293.995 95.994,293.599 95.600 C 293.489 95.490,293.129 94.860,292.799 94.200 C 292.470 93.540,292.059 92.820,291.887 92.600 C 291.603 92.238,289.862 89.363,288.378 86.804 C 288.060 86.257,287.485 85.516,287.100 85.157 C 286.715 84.799,286.400 84.329,286.400 84.112 C 286.400 83.896,285.860 83.154,285.200 82.463 C 284.540 81.772,284.000 81.103,284.000 80.975 C 284.000 80.847,283.775 80.514,283.500 80.235 C 283.225 79.955,282.550 79.125,282.000 78.389 C 281.450 77.653,280.055 76.098,278.900 74.934 C 277.745 73.770,276.800 72.662,276.800 72.472 C 276.800 71.616,267.101 61.859,264.694 60.293 C 264.097 59.905,262.801 58.780,261.814 57.793 C 260.828 56.807,259.879 56.000,259.706 56.000 C 259.403 56.000,256.898 53.959,254.921 52.100 C 254.394 51.605,253.837 51.200,253.682 51.199 C 253.527 51.199,252.770 50.659,252.000 50.000 C 251.230 49.341,250.375 48.801,250.100 48.801 C 249.825 48.800,249.600 48.642,249.600 48.449 C 249.600 48.255,249.060 47.873,248.400 47.600 C 247.740 47.327,247.200 46.973,247.200 46.814 C 247.200 46.656,246.345 46.095,245.300 45.568 C 244.255 45.042,243.310 44.496,243.200 44.355 C 243.090 44.215,241.650 43.402,240.000 42.550 C 238.350 41.697,236.940 40.865,236.867 40.700 C 236.793 40.535,236.403 40.400,236.000 40.400 C 235.597 40.400,235.207 40.265,235.133 40.100 C 234.908 39.594,231.573 38.000,230.739 38.000 C 230.306 38.000,230.064 37.820,230.200 37.600 C 230.336 37.380,230.087 37.200,229.647 37.200 C 229.207 37.200,228.736 37.020,228.600 36.800 C 228.464 36.580,227.778 36.397,227.076 36.394 C 226.105 36.389,225.943 36.295,226.400 36.000 C 226.888 35.685,226.836 35.611,226.124 35.606 C 225.642 35.603,225.136 35.420,225.000 35.200 C 224.864 34.980,224.303 34.800,223.753 34.800 C 223.203 34.800,222.857 34.631,222.985 34.424 C 223.113 34.218,222.863 34.075,222.429 34.108 C 221.866 34.150,221.754 34.304,222.037 34.645 M215.000 305.414 C 214.340 305.717,214.081 305.972,214.424 305.982 C 214.766 305.992,215.396 305.736,215.824 305.413 C 216.772 304.696,216.569 304.696,215.000 305.414 " stroke="none" fill="#8e3cfc" fill-rule="evenodd"></path><path id="path1" d="M157.014 24.422 C 157.154 24.649,155.805 24.800,153.647 24.800 C 151.667 24.800,149.936 24.980,149.800 25.200 C 149.664 25.420,149.373 25.600,149.153 25.600 C 148.933 25.600,148.852 25.439,148.973 25.243 C 149.101 25.037,148.511 25.040,147.571 25.251 C 146.679 25.451,145.780 25.511,145.574 25.384 C 144.937 24.990,144.237 25.649,144.857 26.058 C 145.199 26.284,144.585 26.362,143.200 26.270 C 140.806 26.111,139.883 26.287,140.223 26.837 C 140.343 27.032,140.162 27.084,139.821 26.953 C 139.467 26.817,139.200 26.926,139.200 27.206 C 139.200 27.543,139.043 27.574,138.700 27.304 C 137.817 26.607,136.812 26.829,137.301 27.613 C 137.534 27.987,138.012 28.217,138.363 28.125 C 138.939 27.974,138.981 29.184,138.800 40.779 C 138.690 47.831,138.746 53.601,138.924 53.600 C 139.102 53.600,139.155 53.750,139.041 53.933 C 138.928 54.117,139.097 54.267,139.418 54.267 C 139.738 54.267,140.000 54.081,140.000 53.853 C 140.000 53.606,140.193 53.633,140.480 53.920 C 140.744 54.184,141.149 54.397,141.380 54.394 C 141.611 54.391,141.530 54.195,141.200 53.959 C 140.718 53.615,140.777 53.569,141.500 53.728 C 141.995 53.836,142.400 53.802,142.400 53.651 C 142.400 53.500,143.125 53.418,144.010 53.467 C 144.943 53.519,145.522 53.398,145.387 53.179 C 145.252 52.961,145.941 52.800,147.003 52.800 C 148.020 52.800,149.169 52.631,149.556 52.423 C 149.943 52.216,151.455 52.008,152.915 51.961 C 154.375 51.914,155.476 51.723,155.361 51.537 C 155.247 51.352,157.673 51.200,160.753 51.200 C 164.055 51.200,166.454 51.036,166.600 50.800 C 166.736 50.580,167.737 50.400,168.824 50.400 C 169.911 50.400,170.800 50.580,170.800 50.800 C 170.800 51.047,172.840 51.200,176.120 51.200 C 179.822 51.200,181.604 51.352,181.979 51.700 C 182.416 52.106,182.458 52.088,182.200 51.600 C 181.942 51.112,181.984 51.094,182.421 51.500 C 182.718 51.775,183.903 52.000,185.056 52.000 C 186.209 52.000,187.264 52.180,187.400 52.400 C 187.536 52.620,188.627 52.800,189.824 52.800 C 191.021 52.800,192.000 52.980,192.000 53.200 C 192.000 53.420,192.709 53.600,193.576 53.600 C 194.443 53.600,195.264 53.780,195.400 54.000 C 195.536 54.220,196.256 54.400,197.000 54.400 C 197.744 54.400,198.464 54.580,198.600 54.800 C 198.736 55.020,199.341 55.200,199.944 55.200 C 200.547 55.200,201.256 55.416,201.520 55.680 C 201.784 55.944,202.000 56.035,202.000 55.883 C 202.000 55.731,202.675 55.873,203.500 56.198 C 204.325 56.523,205.450 56.869,206.000 56.965 C 206.550 57.062,207.045 57.176,207.100 57.220 C 207.155 57.264,207.335 57.329,207.500 57.364 C 207.665 57.399,208.210 57.656,208.712 57.935 C 209.214 58.213,210.201 58.514,210.906 58.603 C 211.612 58.693,212.251 58.953,212.328 59.183 C 212.404 59.412,213.002 59.600,213.657 59.600 C 214.349 59.600,214.744 59.768,214.600 60.000 C 214.459 60.228,214.804 60.400,215.400 60.400 C 215.996 60.400,216.341 60.572,216.200 60.800 C 216.064 61.020,216.323 61.200,216.776 61.200 C 217.229 61.200,217.600 61.401,217.600 61.647 C 217.600 61.894,217.951 62.001,218.385 61.888 C 218.817 61.775,219.379 61.934,219.634 62.241 C 219.889 62.549,220.301 62.804,220.549 62.809 C 220.797 62.814,221.450 63.170,222.000 63.600 C 223.205 64.543,223.467 64.581,223.467 63.818 C 223.467 63.497,223.343 63.312,223.191 63.405 C 222.798 63.649,221.009 61.657,221.332 61.335 C 221.479 61.187,221.603 61.322,221.606 61.633 C 221.611 62.100,221.681 62.094,222.000 61.600 C 222.621 60.638,222.525 35.602,221.900 35.594 C 221.590 35.590,221.552 35.476,221.800 35.294 C 222.336 34.900,222.532 33.871,222.010 34.194 C 221.784 34.333,221.600 34.132,221.600 33.747 C 221.600 33.099,221.560 33.101,221.061 33.784 C 220.640 34.360,220.451 34.407,220.199 33.999 C 219.986 33.654,220.033 33.573,220.338 33.762 C 220.592 33.919,220.800 33.901,220.800 33.721 C 220.800 33.221,218.451 32.295,217.809 32.541 C 217.419 32.691,217.316 32.563,217.481 32.133 C 217.667 31.649,217.536 31.567,216.903 31.767 C 216.401 31.927,215.847 31.790,215.471 31.414 C 215.133 31.076,214.394 30.800,213.829 30.800 C 213.263 30.800,212.800 30.620,212.800 30.400 C 212.800 30.180,212.395 29.992,211.900 29.982 C 210.754 29.960,207.329 29.063,206.953 28.686 C 206.795 28.529,206.167 28.400,205.557 28.400 C 204.947 28.400,204.354 28.249,204.240 28.065 C 204.127 27.881,203.364 27.706,202.546 27.675 C 201.728 27.644,200.956 27.469,200.829 27.286 C 200.703 27.103,199.903 26.939,199.052 26.922 C 198.201 26.905,197.378 26.688,197.225 26.440 C 197.071 26.191,196.143 26.018,195.161 26.056 C 194.180 26.093,192.988 25.914,192.511 25.660 C 192.035 25.405,189.205 25.079,186.223 24.936 C 183.240 24.793,180.800 24.519,180.800 24.328 C 180.800 24.136,175.396 23.994,168.790 24.012 C 161.361 24.032,156.869 24.188,157.014 24.422 M66.160 65.500 C 65.741 65.885,65.137 66.560,64.817 67.000 C 64.497 67.440,64.902 67.180,65.717 66.422 C 66.533 65.663,67.200 64.988,67.200 64.922 C 67.200 64.658,66.889 64.831,66.160 65.500 M50.680 168.136 C 50.567 168.431,50.635 168.926,50.831 169.236 C 51.091 169.647,51.189 169.501,51.194 168.700 C 51.201 167.506,51.004 167.290,50.680 168.136 M84.400 251.000 C 85.146 251.770,85.847 252.400,85.957 252.400 C 86.067 252.400,85.546 251.770,84.800 251.000 C 84.054 250.230,83.353 249.600,83.243 249.600 C 83.133 249.600,83.654 250.230,84.400 251.000 M222.453 273.707 C 222.182 273.978,221.834 274.211,221.680 274.224 C 220.872 274.294,218.400 275.617,218.400 275.980 C 218.400 276.211,218.209 276.400,217.976 276.400 C 217.743 276.400,217.682 276.175,217.841 275.900 C 217.999 275.625,217.659 275.828,217.085 276.351 C 216.482 276.899,215.778 277.201,215.420 277.063 C 215.079 276.932,214.800 276.999,214.800 277.213 C 214.800 277.426,214.395 277.606,213.900 277.613 C 213.405 277.620,212.658 277.884,212.241 278.200 C 211.824 278.516,211.327 278.679,211.138 278.562 C 210.949 278.445,210.697 278.604,210.577 278.915 C 210.436 279.282,209.994 279.411,209.321 279.283 C 208.605 279.146,208.369 279.227,208.564 279.542 C 208.742 279.829,208.540 280.000,208.024 280.000 C 206.972 280.000,206.802 280.047,205.629 280.655 C 205.094 280.932,204.489 281.055,204.284 280.928 C 204.079 280.801,203.796 280.882,203.655 281.108 C 203.515 281.333,202.950 281.581,202.400 281.659 C 201.850 281.736,201.303 281.929,201.184 282.087 C 201.066 282.245,200.377 282.420,199.654 282.475 C 198.931 282.530,198.252 282.715,198.146 282.887 C 198.040 283.059,197.333 283.200,196.576 283.200 C 195.819 283.200,195.200 283.380,195.200 283.600 C 195.200 283.820,194.480 284.000,193.600 284.000 C 192.720 284.000,192.000 284.180,192.000 284.400 C 192.000 284.622,190.933 284.800,189.600 284.800 C 188.267 284.800,187.200 284.978,187.200 285.200 C 187.200 285.424,186.093 285.600,184.680 285.600 C 183.294 285.600,181.989 285.768,181.780 285.972 C 181.571 286.177,178.700 286.392,175.400 286.450 C 171.791 286.513,169.268 286.724,169.070 286.978 C 168.841 287.270,168.680 287.256,168.548 286.935 C 168.416 286.613,166.506 286.455,162.371 286.422 C 159.078 286.396,155.926 286.200,155.366 285.987 C 154.806 285.774,153.460 285.600,152.374 285.600 C 151.288 285.600,150.400 285.447,150.400 285.259 C 150.400 285.072,149.815 284.920,149.100 284.922 C 146.040 284.929,144.767 284.776,144.984 284.427 C 145.111 284.221,144.654 284.069,143.969 284.089 C 143.284 284.108,142.564 283.871,142.368 283.562 C 142.074 283.098,142.011 283.096,142.006 283.547 C 142.002 283.875,141.720 284.014,141.300 283.895 C 139.500 283.386,139.400 283.403,139.510 284.200 C 139.613 284.949,139.592 284.954,139.176 284.276 C 138.933 283.877,138.839 283.247,138.968 282.876 C 139.186 282.245,139.167 282.245,138.679 282.869 C 138.191 283.495,138.125 283.495,137.670 282.869 C 137.268 282.316,137.257 282.356,137.606 283.100 C 137.838 283.595,138.192 284.000,138.392 284.000 C 138.898 284.000,138.931 307.807,138.427 308.750 C 137.961 309.621,139.268 310.400,141.195 310.400 C 141.832 310.400,142.464 310.580,142.600 310.800 C 142.736 311.020,143.927 311.200,145.247 311.200 C 146.567 311.200,147.551 311.356,147.433 311.546 C 147.316 311.736,148.610 311.923,150.310 311.962 C 152.009 312.000,153.460 312.205,153.533 312.416 C 153.719 312.951,183.200 312.935,183.200 312.400 C 183.200 312.165,184.600 312.000,186.600 312.000 C 188.600 312.000,190.000 311.835,190.000 311.600 C 190.000 311.378,191.067 311.200,192.400 311.200 C 193.733 311.200,194.800 311.022,194.800 310.800 C 194.800 310.580,195.610 310.400,196.600 310.400 C 197.590 310.400,198.400 310.220,198.400 310.000 C 198.400 309.780,199.199 309.600,200.176 309.600 C 201.153 309.600,202.064 309.420,202.200 309.200 C 202.336 308.980,203.146 308.800,204.000 308.800 C 204.854 308.800,205.654 308.636,205.778 308.435 C 205.902 308.235,206.457 308.121,207.011 308.181 C 207.566 308.242,208.116 308.136,208.233 307.946 C 208.351 307.756,208.802 307.600,209.236 307.600 C 209.670 307.600,210.135 307.315,210.268 306.966 C 210.464 306.456,210.577 306.437,210.850 306.866 C 211.110 307.277,211.189 307.283,211.194 306.892 C 211.198 306.544,211.532 306.468,212.260 306.651 C 212.949 306.824,213.230 306.772,213.062 306.501 C 212.757 306.007,214.640 305.454,215.280 305.850 C 215.548 306.015,215.611 305.941,215.438 305.662 C 215.159 305.211,215.476 305.088,216.900 305.093 C 217.285 305.095,217.600 304.929,217.600 304.724 C 217.600 304.520,217.760 304.451,217.955 304.572 C 218.150 304.693,218.532 304.523,218.804 304.196 C 219.076 303.868,219.636 303.600,220.049 303.600 C 220.463 303.600,220.800 303.320,220.800 302.976 C 220.800 302.633,220.980 302.464,221.200 302.600 C 221.420 302.736,221.600 302.477,221.600 302.024 C 221.600 301.571,221.780 301.200,222.000 301.200 C 222.258 301.200,222.400 296.659,222.400 288.376 C 222.400 278.785,222.284 275.625,221.938 275.838 C 221.393 276.175,221.804 275.370,222.725 274.298 C 223.424 273.484,223.188 272.972,222.453 273.707 " stroke="none" fill="#5b76fb" fill-rule="evenodd"></path><path id="path2" d="M136.540 27.387 C 136.079 27.710,135.288 27.894,134.781 27.796 C 134.274 27.699,133.648 27.794,133.389 28.009 C 133.131 28.224,132.397 28.432,131.760 28.472 C 131.122 28.512,130.406 28.689,130.169 28.865 C 129.931 29.040,129.351 29.243,128.879 29.315 C 128.407 29.387,127.896 29.571,127.744 29.723 C 127.591 29.875,126.867 30.000,126.133 30.000 C 125.400 30.000,124.800 30.180,124.800 30.400 C 124.800 30.620,124.361 30.800,123.824 30.800 C 123.287 30.800,122.736 30.980,122.600 31.200 C 122.464 31.420,121.924 31.600,121.400 31.600 C 120.876 31.600,120.336 31.780,120.200 32.000 C 120.064 32.220,119.601 32.400,119.171 32.400 C 118.741 32.400,118.032 32.580,117.595 32.800 C 117.158 33.020,116.442 33.380,116.005 33.600 C 115.568 33.820,114.953 34.000,114.639 34.000 C 114.324 34.000,114.007 34.175,113.933 34.388 C 113.860 34.602,113.380 34.840,112.867 34.918 C 112.354 34.996,111.789 35.294,111.612 35.581 C 111.433 35.870,111.071 35.968,110.800 35.800 C 110.531 35.634,110.196 35.656,110.055 35.849 C 109.659 36.394,108.078 37.200,107.405 37.200 C 107.072 37.200,106.800 37.380,106.800 37.600 C 106.800 37.820,107.149 38.000,107.576 38.000 C 108.003 38.000,108.467 38.184,108.606 38.410 C 108.745 38.635,108.621 38.770,108.330 38.710 C 107.901 38.621,107.762 41.295,107.600 52.738 L 107.400 66.876 106.000 68.261 C 104.454 69.791,105.430 69.690,107.094 68.148 C 107.648 67.635,108.256 67.311,108.446 67.428 C 108.636 67.546,108.673 67.335,108.530 66.961 C 108.311 66.391,108.441 66.324,109.334 66.548 C 109.992 66.713,110.400 66.651,110.400 66.387 C 110.400 66.151,110.940 65.770,111.600 65.540 C 112.260 65.310,112.800 64.949,112.800 64.737 C 112.800 64.526,112.965 64.455,113.168 64.580 C 113.370 64.705,113.807 64.536,114.139 64.204 C 114.471 63.872,115.036 63.600,115.395 63.600 C 115.754 63.600,115.936 63.420,115.800 63.200 C 115.660 62.973,115.996 62.800,116.576 62.800 C 117.139 62.800,117.600 62.620,117.600 62.400 C 117.600 62.180,117.949 62.000,118.376 62.000 C 118.803 62.000,119.264 61.820,119.400 61.600 C 119.536 61.380,119.997 61.200,120.424 61.200 C 120.851 61.200,121.200 61.020,121.200 60.800 C 121.200 60.580,121.472 60.400,121.805 60.400 C 122.138 60.400,122.723 60.233,123.105 60.029 C 123.487 59.825,124.160 59.533,124.600 59.380 C 125.040 59.226,127.380 58.393,129.800 57.529 C 132.220 56.664,134.633 55.868,135.162 55.760 C 135.691 55.651,136.411 55.415,136.762 55.235 C 137.113 55.055,137.625 54.989,137.900 55.087 C 138.175 55.186,138.509 54.983,138.642 54.636 C 138.775 54.289,139.090 54.100,139.342 54.217 C 139.594 54.334,139.530 54.228,139.200 53.981 C 138.681 53.592,138.627 51.803,138.800 40.745 C 138.985 28.893,138.951 27.971,138.326 28.135 C 137.955 28.232,137.552 28.052,137.430 27.735 C 137.291 27.371,137.378 27.263,137.666 27.441 C 137.948 27.615,138.014 27.546,137.838 27.262 C 137.484 26.689,137.545 26.683,136.540 27.387 M140.000 54.087 C 140.000 54.471,140.358 54.448,141.400 53.998 C 142.090 53.700,142.049 53.661,141.100 53.713 C 140.495 53.747,140.000 53.915,140.000 54.087 M106.585 269.339 C 107.049 269.679,107.203 270.072,106.999 270.401 C 106.798 270.726,106.834 270.826,107.093 270.666 C 107.322 270.525,107.735 270.681,108.011 271.014 C 108.420 271.506,108.410 271.579,107.957 271.405 C 107.262 271.138,107.334 297.798,108.030 298.636 C 108.309 298.973,108.306 299.211,108.019 299.388 C 107.428 299.753,107.495 300.504,108.100 300.288 C 108.375 300.190,109.100 300.362,109.712 300.671 C 110.323 300.980,110.999 301.124,111.215 300.991 C 111.430 300.858,111.714 301.031,111.846 301.375 C 111.978 301.719,112.336 302.000,112.643 302.000 C 112.949 302.000,113.200 302.180,113.200 302.400 C 113.200 302.620,113.650 302.800,114.200 302.800 C 114.750 302.800,115.200 302.980,115.200 303.200 C 115.200 303.420,115.549 303.600,115.976 303.600 C 116.403 303.600,116.864 303.780,117.000 304.000 C 117.136 304.220,117.687 304.400,118.224 304.400 C 118.761 304.400,119.200 304.580,119.200 304.800 C 119.200 305.020,119.729 305.200,120.376 305.200 C 121.023 305.200,121.664 305.380,121.800 305.600 C 121.936 305.820,122.451 306.000,122.944 306.000 C 123.437 306.000,124.056 306.216,124.320 306.480 C 124.584 306.744,124.800 306.838,124.800 306.690 C 124.800 306.541,125.295 306.611,125.900 306.845 C 127.835 307.593,132.889 308.800,134.088 308.800 C 134.755 308.800,135.143 308.969,135.001 309.198 C 134.851 309.441,135.396 309.571,136.399 309.532 C 138.813 309.437,138.826 309.365,138.788 296.183 C 138.753 284.008,138.561 282.618,136.945 282.834 C 136.804 282.853,136.579 282.697,136.445 282.487 C 136.214 282.128,129.494 279.697,127.829 279.370 C 127.406 279.287,126.875 279.035,126.649 278.809 C 126.424 278.584,125.826 278.400,125.320 278.400 C 124.814 278.400,124.400 278.220,124.400 278.000 C 124.400 277.780,124.082 277.600,123.694 277.600 C 123.306 277.600,122.361 277.267,121.594 276.860 C 120.827 276.453,119.950 276.207,119.644 276.312 C 119.306 276.429,119.198 276.327,119.368 276.052 C 119.542 275.771,119.330 275.600,118.807 275.600 C 118.345 275.600,117.580 275.240,117.108 274.800 C 116.636 274.360,115.822 274.000,115.301 274.000 C 114.779 274.000,114.445 273.850,114.558 273.668 C 114.671 273.485,114.142 273.091,113.382 272.793 C 112.622 272.495,112.000 272.085,112.000 271.882 C 112.000 271.679,111.390 271.584,110.645 271.671 C 109.661 271.786,109.345 271.688,109.488 271.314 C 109.603 271.014,109.390 270.800,108.976 270.800 C 108.586 270.800,108.388 270.679,108.537 270.530 C 108.685 270.382,108.310 269.933,107.703 269.533 C 106.433 268.695,105.478 268.530,106.585 269.339 M137.886 283.080 C 138.082 283.589,138.192 283.624,138.328 283.217 C 138.439 282.882,138.707 283.119,139.028 283.837 C 139.372 284.606,139.519 284.729,139.462 284.200 C 139.344 283.090,138.856 282.400,138.189 282.400 C 137.823 282.400,137.717 282.638,137.886 283.080 M140.400 283.600 C 141.183 284.106,142.000 284.106,142.000 283.600 C 142.000 283.380,141.505 283.203,140.900 283.206 C 140.043 283.211,139.932 283.298,140.400 283.600 M106.505 298.870 C 106.472 299.300,106.649 299.584,106.898 299.501 C 107.580 299.273,107.705 298.526,107.099 298.293 C 106.773 298.168,106.541 298.394,106.505 298.870 M139.349 309.079 C 139.457 309.654,139.287 310.018,138.857 310.133 C 138.264 310.290,138.266 310.312,138.876 310.354 C 139.767 310.415,139.981 309.981,139.542 309.000 C 139.206 308.251,139.194 308.256,139.349 309.079 " stroke="none" fill="#4989fc" fill-rule="evenodd"></path><path id="path3" d="M78.587 54.721 C 78.690 54.824,78.105 55.444,77.287 56.099 C 76.469 56.754,75.845 57.449,75.900 57.645 C 75.955 57.840,75.730 58.000,75.400 58.000 C 75.070 58.000,74.800 58.191,74.800 58.424 C 74.800 58.657,74.632 58.744,74.427 58.617 C 74.222 58.490,73.772 58.790,73.427 59.282 C 73.082 59.775,72.800 60.042,72.800 59.875 C 72.800 59.708,72.374 59.983,71.853 60.486 C 71.332 60.989,70.982 61.535,71.076 61.700 C 71.170 61.865,70.991 62.000,70.678 62.000 C 70.365 62.000,68.329 63.816,66.154 66.036 C 60.264 72.049,59.555 72.800,59.768 72.800 C 59.876 72.800,59.567 73.233,59.082 73.762 C 58.080 74.854,57.446 75.606,55.954 77.469 C 55.379 78.187,54.794 78.660,54.654 78.521 C 54.514 78.381,54.400 78.567,54.400 78.933 C 54.400 79.300,54.220 79.600,54.000 79.600 C 53.780 79.600,53.600 79.830,53.600 80.112 C 53.600 80.393,53.240 80.883,52.800 81.200 C 52.360 81.517,52.000 81.980,52.000 82.229 C 52.000 82.478,51.460 83.246,50.800 83.937 C 50.140 84.628,49.600 85.425,49.600 85.708 C 49.600 85.991,49.240 86.483,48.800 86.800 C 48.360 87.117,48.000 87.697,48.000 88.088 C 48.000 88.480,47.850 88.800,47.668 88.800 C 47.485 88.800,47.080 89.295,46.768 89.900 C 46.455 90.505,45.894 91.339,45.520 91.754 C 45.146 92.169,44.533 93.154,44.158 93.944 C 43.784 94.734,43.226 95.631,42.919 95.938 C 42.612 96.245,42.257 97.015,42.130 97.648 C 42.004 98.282,41.743 98.800,41.550 98.800 C 41.358 98.800,41.200 99.145,41.200 99.567 C 41.200 99.988,41.063 100.393,40.896 100.467 C 40.488 100.646,37.193 107.267,37.197 107.900 C 37.199 108.175,37.064 108.400,36.898 108.400 C 36.731 108.400,36.356 108.985,36.064 109.700 C 34.941 112.450,34.696 113.022,34.353 113.695 C 34.159 114.077,34.000 114.662,34.000 114.995 C 34.000 115.328,33.820 115.600,33.600 115.600 C 33.380 115.600,33.200 116.050,33.200 116.600 C 33.200 117.150,33.020 117.600,32.800 117.600 C 32.580 117.600,32.400 118.039,32.400 118.576 C 32.400 119.113,32.220 119.664,32.000 119.800 C 31.780 119.936,31.600 120.476,31.600 121.000 C 31.600 121.524,31.420 122.064,31.200 122.200 C 30.980 122.336,30.800 122.977,30.800 123.624 C 30.800 124.271,30.620 124.800,30.400 124.800 C 30.180 124.800,30.000 125.239,30.000 125.776 C 30.000 126.313,29.820 126.864,29.600 127.000 C 29.380 127.136,29.200 127.766,29.200 128.400 C 29.200 129.034,29.020 129.664,28.800 129.800 C 28.580 129.936,28.400 130.667,28.400 131.424 C 28.400 132.181,28.239 132.800,28.042 132.800 C 27.845 132.800,27.584 133.475,27.462 134.300 C 27.340 135.125,27.044 136.790,26.803 138.000 C 26.562 139.210,26.288 140.941,26.193 141.846 C 26.099 142.751,25.827 144.003,25.589 144.628 C 25.352 145.253,25.049 148.164,24.916 151.097 C 24.784 154.030,24.523 156.524,24.338 156.639 C 23.845 156.943,23.906 180.295,24.400 180.600 C 24.620 180.736,24.808 182.142,24.818 183.724 C 24.827 185.306,25.016 187.950,25.238 189.600 C 25.459 191.250,25.744 193.548,25.870 194.707 C 25.997 195.866,26.258 196.912,26.450 197.031 C 26.643 197.150,26.800 198.047,26.800 199.024 C 26.800 200.001,26.961 200.800,27.158 200.800 C 27.355 200.800,27.625 201.520,27.758 202.400 C 27.891 203.280,28.109 204.720,28.242 205.600 C 28.375 206.480,28.645 207.200,28.842 207.200 C 29.039 207.200,29.200 207.729,29.200 208.376 C 29.200 209.023,29.380 209.664,29.600 209.800 C 29.820 209.936,30.000 210.667,30.000 211.424 C 30.000 212.181,30.136 212.800,30.303 212.800 C 30.634 212.800,31.600 215.624,31.600 216.594 C 31.600 216.927,31.780 217.200,32.000 217.200 C 32.220 217.200,32.400 217.650,32.400 218.200 C 32.400 218.750,32.580 219.200,32.800 219.200 C 33.020 219.200,33.200 219.740,33.200 220.400 C 33.200 221.060,33.380 221.600,33.600 221.600 C 33.820 221.600,34.000 221.949,34.000 222.376 C 34.000 222.803,34.180 223.264,34.400 223.400 C 34.620 223.536,34.800 223.997,34.800 224.424 C 34.800 224.851,34.980 225.200,35.200 225.200 C 35.420 225.200,35.600 225.560,35.600 226.000 C 35.600 226.440,35.780 226.800,36.000 226.800 C 36.220 226.800,36.400 227.160,36.400 227.600 C 36.400 228.040,36.580 228.400,36.800 228.400 C 37.020 228.400,37.200 228.839,37.200 229.376 C 37.200 229.913,37.380 230.464,37.600 230.600 C 37.820 230.736,38.000 231.197,38.000 231.624 C 38.000 232.051,38.146 232.400,38.325 232.400 C 38.504 232.400,38.898 233.030,39.200 233.800 C 39.502 234.570,39.896 235.200,40.075 235.200 C 40.254 235.200,40.400 235.560,40.400 236.000 C 40.400 236.440,40.546 236.800,40.725 236.800 C 40.904 236.800,41.298 237.430,41.600 238.200 C 41.902 238.970,42.296 239.600,42.475 239.600 C 42.654 239.600,42.764 239.735,42.720 239.900 C 42.575 240.445,46.263 246.917,46.842 247.133 C 47.039 247.207,47.200 247.572,47.200 247.945 C 47.200 248.318,47.560 248.883,48.000 249.200 C 48.440 249.517,48.800 250.007,48.800 250.288 C 48.800 250.570,48.980 250.800,49.200 250.800 C 49.420 250.800,49.600 251.070,49.600 251.400 C 49.600 251.730,49.750 252.000,49.932 252.000 C 50.115 252.000,50.520 252.495,50.832 253.100 C 51.145 253.705,51.850 254.650,52.400 255.200 C 52.950 255.750,53.654 256.692,53.964 257.293 C 54.274 257.895,54.859 258.492,55.264 258.620 C 55.669 258.749,56.000 259.118,56.000 259.440 C 56.000 259.763,56.630 260.657,57.400 261.427 C 58.170 262.197,58.800 263.001,58.800 263.213 C 58.800 263.426,59.100 263.600,59.467 263.600 C 59.833 263.600,60.024 263.709,59.891 263.843 C 59.636 264.097,59.726 264.233,61.499 266.258 C 64.420 269.596,65.609 270.800,65.988 270.800 C 66.214 270.800,66.400 270.976,66.400 271.190 C 66.400 271.405,67.059 272.170,67.864 272.890 C 68.669 273.611,69.886 274.740,70.567 275.400 C 71.248 276.060,72.300 276.855,72.903 277.168 C 73.506 277.480,74.000 277.885,74.000 278.068 C 74.000 278.250,74.405 278.414,74.900 278.432 C 75.395 278.449,75.592 278.548,75.339 278.652 C 75.044 278.773,75.199 279.159,75.766 279.720 C 77.944 281.876,77.810 282.950,77.680 264.366 C 77.556 246.590,77.525 246.973,79.070 247.163 C 79.914 247.267,80.094 246.367,79.386 245.584 C 78.623 244.741,77.905 244.887,78.260 245.813 C 78.384 246.136,78.301 246.400,78.076 246.400 C 77.412 246.400,77.292 245.451,77.882 244.861 C 78.510 244.232,77.822 243.015,77.093 243.466 C 76.856 243.612,76.795 243.531,76.952 243.278 C 77.103 243.033,76.681 242.311,76.013 241.673 C 75.346 241.035,74.800 240.300,74.800 240.039 C 74.800 239.777,74.313 239.077,73.718 238.482 C 73.123 237.887,72.681 237.351,72.735 237.290 C 72.918 237.086,71.430 234.800,71.114 234.800 C 70.941 234.800,70.800 234.564,70.800 234.275 C 70.800 233.987,70.440 233.364,70.000 232.892 C 69.560 232.420,69.200 231.880,69.200 231.692 C 69.200 231.504,68.885 231.002,68.499 230.575 C 68.114 230.149,67.350 228.900,66.802 227.800 C 66.253 226.700,65.577 225.560,65.299 225.268 C 65.020 224.975,64.885 224.585,64.999 224.402 C 65.112 224.218,65.037 224.008,64.832 223.934 C 64.628 223.860,64.401 223.537,64.330 223.216 C 64.258 222.894,63.885 222.275,63.500 221.840 C 63.115 221.405,62.800 220.813,62.800 220.525 C 62.800 220.236,62.620 220.000,62.400 220.000 C 62.180 220.000,62.000 219.460,62.000 218.800 C 62.000 218.140,61.820 217.600,61.600 217.600 C 61.380 217.600,61.200 217.240,61.200 216.800 C 61.200 216.360,61.020 216.000,60.800 216.000 C 60.580 216.000,60.400 215.655,60.400 215.233 C 60.400 214.812,60.265 214.407,60.100 214.333 C 59.817 214.208,58.496 210.906,58.205 209.600 C 57.946 208.434,56.709 204.995,56.407 204.600 C 56.119 204.224,55.868 203.167,55.337 200.100 C 55.214 199.385,54.952 198.800,54.756 198.800 C 54.560 198.800,54.400 197.990,54.400 197.000 C 54.400 196.010,54.220 195.200,54.000 195.200 C 53.780 195.200,53.600 194.606,53.600 193.880 C 53.600 193.154,53.437 192.389,53.237 192.180 C 53.037 191.971,52.772 190.900,52.648 189.800 C 52.524 188.700,52.222 186.450,51.977 184.800 C 51.732 183.150,51.454 179.190,51.360 176.000 C 51.263 172.729,50.985 169.804,50.722 169.292 C 50.366 168.599,50.368 168.272,50.728 167.912 C 51.049 167.591,51.200 165.494,51.200 161.344 C 51.200 157.711,51.362 155.147,51.600 155.000 C 51.820 154.864,52.000 153.694,52.000 152.400 C 52.000 151.106,52.180 149.936,52.400 149.800 C 52.620 149.664,52.800 148.663,52.800 147.576 C 52.800 146.489,52.962 145.600,53.160 145.600 C 53.358 145.600,53.622 144.835,53.747 143.900 C 54.294 139.811,54.506 138.782,54.842 138.574 C 55.039 138.452,55.200 137.823,55.200 137.176 C 55.200 136.529,55.380 136.000,55.600 136.000 C 55.820 136.000,56.000 135.471,56.000 134.824 C 56.000 134.177,56.180 133.536,56.400 133.400 C 56.620 133.264,56.800 132.623,56.800 131.976 C 56.800 131.329,56.958 130.800,57.150 130.800 C 57.343 130.800,57.638 130.215,57.806 129.500 C 57.974 128.785,58.151 128.110,58.200 128.000 C 58.249 127.890,58.427 127.211,58.596 126.492 C 58.765 125.772,59.060 125.086,59.252 124.968 C 59.443 124.850,59.600 124.313,59.600 123.776 C 59.600 123.239,59.735 122.799,59.900 122.797 C 60.306 122.793,61.200 120.814,61.200 119.920 C 61.200 119.524,61.380 119.200,61.600 119.200 C 61.820 119.200,62.000 118.840,62.000 118.400 C 62.000 117.960,62.180 117.600,62.400 117.600 C 62.620 117.600,62.800 117.255,62.800 116.833 C 62.800 116.412,62.935 116.007,63.100 115.933 C 63.265 115.860,63.833 114.945,64.363 113.900 C 64.892 112.855,65.477 112.000,65.663 112.000 C 65.848 112.000,66.000 111.640,66.000 111.200 C 66.000 110.760,66.180 110.400,66.400 110.400 C 66.620 110.400,66.800 110.040,66.800 109.600 C 66.800 109.160,66.980 108.800,67.200 108.800 C 67.420 108.800,67.600 108.564,67.600 108.275 C 67.600 107.987,67.960 107.364,68.400 106.892 C 68.840 106.420,69.200 105.846,69.200 105.617 C 69.200 105.388,69.410 105.200,69.667 105.200 C 69.923 105.200,70.024 105.091,69.891 104.957 C 69.757 104.824,69.821 104.509,70.031 104.257 C 71.598 102.388,72.000 101.839,72.000 101.567 C 72.000 101.397,72.225 101.019,72.500 100.727 C 73.520 99.646,74.191 98.652,73.705 98.944 C 73.370 99.145,73.285 99.044,73.443 98.633 C 73.571 98.299,73.821 98.065,73.998 98.113 C 74.175 98.161,74.326 98.051,74.334 97.870 C 74.341 97.688,74.716 97.220,75.166 96.829 C 75.617 96.438,75.869 96.002,75.726 95.859 C 75.583 95.717,75.767 95.600,76.133 95.600 C 76.533 95.600,76.800 95.280,76.800 94.800 C 76.800 94.360,76.980 94.000,77.200 94.000 C 77.420 94.000,77.600 93.561,77.600 93.024 C 77.600 92.487,77.808 91.919,78.062 91.762 C 78.348 91.585,78.415 91.652,78.238 91.938 C 77.734 92.754,78.806 92.431,79.718 91.493 C 81.402 89.760,81.800 89.148,81.057 89.434 C 80.695 89.572,80.397 89.891,80.394 90.143 C 80.390 90.399,80.226 90.345,80.020 90.019 C 79.818 89.700,79.742 89.295,79.850 89.119 C 79.958 88.944,79.857 88.800,79.624 88.800 C 79.096 88.800,79.091 89.049,79.601 90.002 C 79.882 90.526,79.863 90.837,79.539 91.038 C 79.270 91.204,79.184 91.149,79.334 90.907 C 79.475 90.678,79.292 90.245,78.926 89.945 C 78.336 89.461,78.287 89.501,78.493 90.300 C 78.621 90.795,78.581 91.200,78.405 91.200 C 77.157 91.200,77.122 56.322,78.369 56.132 C 78.826 56.062,79.200 56.195,79.200 56.426 C 79.200 56.658,79.032 56.744,78.828 56.617 C 78.623 56.491,78.350 56.557,78.221 56.766 C 77.958 57.191,78.727 57.806,79.080 57.453 C 79.654 56.880,79.591 54.533,79.002 54.533 C 78.671 54.533,78.484 54.618,78.587 54.721 M80.400 247.143 C 80.400 247.515,82.131 249.200,82.513 249.200 C 82.657 249.200,82.671 248.930,82.545 248.600 C 82.418 248.270,82.053 248.000,81.734 248.000 C 81.414 248.000,81.252 247.839,81.374 247.642 C 81.496 247.445,81.326 247.181,80.998 247.054 C 80.669 246.928,80.400 246.968,80.400 247.143 M78.887 282.500 C 79.186 282.775,79.874 283.233,80.415 283.518 C 81.233 283.949,81.197 283.864,80.200 283.020 C 79.003 282.006,77.855 281.552,78.887 282.500 M87.200 288.201 C 87.200 288.342,87.470 288.727,87.800 289.057 C 88.130 289.387,88.400 289.532,88.400 289.380 C 88.400 289.227,88.670 289.326,89.000 289.600 C 89.330 289.874,89.600 289.998,89.600 289.876 C 89.600 289.754,89.060 289.270,88.400 288.800 C 87.740 288.330,87.200 288.061,87.200 288.201 " stroke="none" fill="#30a7f6" fill-rule="evenodd"></path><path id="path4" d="M105.600 38.304 C 105.600 38.471,105.221 38.844,104.758 39.133 C 104.295 39.422,104.036 39.466,104.182 39.230 C 104.328 38.993,104.257 38.800,104.024 38.800 C 103.791 38.800,103.600 38.955,103.600 39.145 C 103.600 39.335,102.565 39.961,101.300 40.536 C 100.035 41.111,98.460 41.944,97.800 42.388 C 97.140 42.832,96.285 43.196,95.900 43.197 C 95.515 43.199,95.200 43.337,95.200 43.505 C 95.200 43.673,94.862 43.988,94.448 44.205 C 92.925 45.005,88.996 47.714,88.866 48.054 C 88.792 48.247,88.567 48.303,88.367 48.179 C 87.905 47.894,86.313 48.979,86.669 49.336 C 86.814 49.481,86.648 49.600,86.300 49.600 C 85.952 49.600,85.607 49.766,85.533 49.970 C 85.460 50.173,85.133 50.398,84.808 50.470 C 84.482 50.541,83.703 51.095,83.077 51.700 C 82.451 52.305,81.762 52.800,81.546 52.800 C 81.330 52.800,81.281 53.008,81.438 53.262 C 81.607 53.536,81.549 53.615,81.294 53.458 C 80.819 53.165,79.619 54.186,79.567 54.929 C 79.463 56.397,79.306 57.227,79.093 57.440 C 78.731 57.803,77.952 57.201,78.221 56.766 C 78.350 56.557,78.623 56.491,78.828 56.617 C 79.032 56.744,79.200 56.676,79.200 56.466 C 79.200 55.917,78.070 55.564,77.785 56.024 C 77.653 56.238,77.332 56.286,77.072 56.130 C 76.724 55.921,76.727 56.003,77.083 56.444 C 77.442 56.887,77.572 61.273,77.591 73.509 C 77.605 82.566,77.722 90.252,77.851 90.588 C 78.218 91.545,78.752 91.305,78.493 90.300 C 78.287 89.501,78.336 89.461,78.926 89.945 C 79.292 90.245,79.489 90.695,79.365 90.945 C 79.241 91.195,79.475 91.021,79.886 90.559 C 80.297 90.096,81.036 89.502,81.528 89.239 C 82.020 88.975,82.331 88.612,82.219 88.430 C 82.107 88.249,82.480 87.763,83.048 87.350 C 83.616 86.938,84.648 86.003,85.341 85.274 C 86.033 84.544,86.950 83.644,87.379 83.274 C 87.807 82.903,88.925 81.835,89.864 80.900 C 90.802 79.965,91.681 79.200,91.816 79.200 C 91.952 79.200,92.728 78.525,93.541 77.700 C 94.353 76.875,95.283 76.141,95.605 76.068 C 95.928 75.995,96.284 75.811,96.396 75.658 C 96.938 74.918,103.793 70.000,104.283 70.000 C 104.394 70.000,104.847 69.539,105.291 68.976 C 105.751 68.391,106.342 68.046,106.669 68.171 C 107.000 68.298,107.134 68.217,106.986 67.978 C 106.846 67.751,106.924 67.332,107.160 67.048 C 107.443 66.707,107.625 61.770,107.695 52.565 C 107.780 41.228,107.900 38.621,108.330 38.710 C 108.621 38.770,108.745 38.635,108.606 38.410 C 108.316 37.940,105.600 37.844,105.600 38.304 M77.770 244.924 C 77.313 245.447,77.451 246.400,77.983 246.400 C 78.158 246.400,78.300 245.950,78.300 245.400 C 78.300 244.850,78.278 244.407,78.250 244.415 C 78.223 244.424,78.006 244.652,77.770 244.924 M77.947 247.234 C 77.713 247.378,77.612 253.996,77.683 264.385 L 77.800 281.303 78.784 281.951 C 79.325 282.308,80.885 283.500,82.250 284.600 C 84.539 286.444,88.302 288.990,90.774 290.368 C 91.335 290.681,92.033 291.176,92.325 291.468 C 92.618 291.761,93.011 292.000,93.200 292.000 C 93.389 292.000,93.781 292.225,94.071 292.500 C 94.362 292.775,95.140 293.264,95.800 293.588 C 96.460 293.911,97.720 294.651,98.600 295.231 C 99.480 295.812,100.875 296.528,101.700 296.824 C 102.525 297.119,103.200 297.526,103.200 297.727 C 103.200 297.928,103.547 298.003,103.970 297.892 C 104.542 297.742,104.679 297.850,104.502 298.311 C 104.333 298.752,104.417 298.837,104.793 298.605 C 105.129 298.396,105.517 298.546,105.861 299.015 C 106.366 299.706,106.615 299.410,106.452 298.314 C 106.429 298.157,106.688 298.136,107.028 298.266 C 107.368 298.396,107.551 298.750,107.436 299.052 C 107.320 299.353,107.369 299.600,107.546 299.600 C 108.149 299.600,108.393 299.074,108.007 298.609 C 107.332 297.795,107.283 271.146,107.957 271.405 C 108.410 271.579,108.420 271.506,108.011 271.014 C 107.735 270.681,107.352 270.506,107.159 270.625 C 106.967 270.744,106.916 270.564,107.046 270.224 C 107.185 269.861,107.020 269.506,106.644 269.361 C 106.292 269.227,106.078 268.997,106.168 268.852 C 106.258 268.706,105.897 268.382,105.365 268.131 C 104.636 267.787,104.465 267.788,104.669 268.137 C 104.817 268.392,104.422 268.094,103.791 267.477 C 103.160 266.859,102.139 266.055,101.522 265.690 C 100.905 265.326,100.400 264.886,100.400 264.714 C 100.400 264.541,100.222 264.400,100.005 264.400 C 99.787 264.400,99.292 264.141,98.905 263.825 C 98.517 263.508,97.411 262.602,96.446 261.811 C 95.482 261.021,94.610 260.457,94.509 260.558 C 94.407 260.659,93.368 259.810,92.199 258.671 C 88.827 255.387,84.423 251.412,83.993 251.267 C 83.777 251.193,83.600 250.957,83.600 250.741 C 83.600 250.525,83.060 249.894,82.399 249.338 C 81.738 248.782,81.316 248.136,81.461 247.902 C 81.616 247.650,81.534 247.594,81.259 247.764 C 81.003 247.921,80.694 247.789,80.571 247.469 C 80.355 246.905,78.719 246.759,77.947 247.234 " stroke="none" fill="#4494fc" fill-rule="evenodd"></path></g></svg>